<?xml version="1.0" encoding="utf-8"?>
<!-- Generator: Adobe Illustrator 18.0.0, SVG Export Plug-In . SVG Version: 6.00 Build 0)  -->
<!DOCTYPE svg PUBLIC "-//W3C//DTD SVG 1.1//EN" "http://www.w3.org/Graphics/SVG/1.1/DTD/svg11.dtd">
<svg version="1.1" id="Layer_1" xmlns="http://www.w3.org/2000/svg" xmlns:xlink="http://www.w3.org/1999/xlink" x="0px" y="0px"
	 viewBox="0 0 300 300" enable-background="new 0 0 300 300" xml:space="preserve">
<g>
	<polygon fill="#01D1B2" points="244.2,72.6 244.2,113 244.2,192.6 281.2,192.6 281.2,113 281.2,72.6 	"/>
	<polygon fill="#0E5384" points="244.2,223.3 244.2,247.4 281.2,247.4 281.2,223.3 281.2,211 244.2,211 	"/>
	<polygon fill="#01D1B2" points="142.4,111.4 105.4,111.4 105.4,148.4 105.4,160.5 105.4,180.9 105.4,180.9 105.4,197.9 
		105.4,197.9 105.4,217.9 105.4,275.2 142.4,275.2 142.4,217.9 178,217.9 178,180.9 142.4,180.9 142.4,148.4 215.1,148.4 
		215.1,111.4 191.9,111.4 	"/>
	<path fill="#0E5384" d="M105.4,180.9v-20.4c-27.2,0-49.2-22-49.2-49.2c0-27.2,22-49.2,49.2-49.2c27.2,0,49.2,22,49.2,49.2h37.4
		c0-47.8-38.8-86.6-86.6-86.6s-86.6,38.8-86.6,86.6c0,47.8,38.8,86.6,86.6,86.6l0,0V180.9L105.4,180.9z"/>
</g>
</svg>
